# xmcd
#
# Track frame offsets:
#	150
#	16882
#	30898
#	48806
#	62998
#	79736
#	98166
#	118764
#	135975
#	149358
#	166586
#	180652
#
# Disc length: 2610 seconds
#
# Revision: 1
# Processed by: cddbd v1.4PL0 Copyright (c) Steve Scherf et al.
# Submitted via: audiograbber 1.81.02
#
DISCID=8d0a300c
DTITLE=Horst Chmela - Eskalero
DYEAR=1999
DGENRE=Blues
TTITLE0=Eskalero
TTITLE1=Reggae Rockn Roll
TTITLE2=I'm felling blue
TTITLE3=Schatzl, komm und zier di' net
TTITLE4=Himmlische Tr‰ume
TTITLE5=Vater und Sohn
TTITLE6=Medley 2000
TTITLE7=Liebe in mir
TTITLE8=I hab di zum Fressen gern
TTITLE9=I muaﬂ wieder ham
TTITLE10=Ich hab Sehnsucht
TTITLE11=Der Volksmusikrebell
EXTD=
EXTT0=
EXTT1=
EXTT2=
EXTT3=
EXTT4=
EXTT5=
EXTT6=
EXTT7=
EXTT8=
EXTT9=
EXTT10=
EXTT11=
PLAYORDER=
